<svg
  xmlns="http://www.w3.org/2000/svg"
  width="80"
  height="80"
  viewBox="0 0 80 80"
>
  <circle
    cx="29"
    cy="27"
    r="14"
    fill="#f4c542"
  />

  <g
    fill="none"
    stroke="#f4c542"
    stroke-width="3"
    stroke-linecap="round"
  >
    <path d="M29 6v7" />
    <path d="M29 41v7" />
    <path d="M8 27h7" />
    <path d="M43 27h7" />
    <path d="M14 12l5 5" />
    <path d="M39 37l5 5" />
  </g>

  <path
    d="M20 61h38c8 0 14-5 14-12s-6-12-14-12c-2 0-3 0-4 .5C51 29 45 24 36 24c-10 0-18 8-19 18C10 43 6 48 6 53c0 5 5 8 14 8z"
    fill="#d9e2e8"
    stroke="#64727a"
    stroke-width="2"
  />
</svg>